<?xml version="1.0" encoding="UTF-8" standalone="no"?>
<!DOCTYPE svg PUBLIC "-//W3C//DTD SVG 1.1//EN"
 "http://www.w3.org/Graphics/SVG/1.1/DTD/svg11.dtd">
<!-- Generated by graphviz version 2.40.1 (20161225.0304)
 -->
<!-- Title: %3 Pages: 1 -->
<svg width="644pt" height="188pt"
 viewBox="0.00 0.00 644.00 188.00" xmlns="http://www.w3.org/2000/svg" xmlns:xlink="http://www.w3.org/1999/xlink">
<g id="graph0" class="graph" transform="scale(1 1) rotate(0) translate(4 184)">
<title>%3</title>
<polygon fill="#ffffff" stroke="transparent" points="-4,4 -4,-184 640,-184 640,4 -4,4"/>
<!-- StopWordsWebService4 -->
<g id="node1" class="node">
<title>StopWordsWebService4</title>
<path fill="none" stroke="#000000" d="M184,-180C184,-180 50,-180 50,-180 44,-180 38,-174 38,-168 38,-168 38,-156 38,-156 38,-150 44,-144 50,-144 50,-144 184,-144 184,-144 190,-144 196,-150 196,-156 196,-156 196,-168 196,-168 196,-174 190,-180 184,-180"/>
<text text-anchor="middle" x="117" y="-158.3" font-family="Times,serif" font-size="14.00" fill="#000000">StopWordsWebService4</text>
</g>
<!-- QueryStopWordsFacadeTransactional -->
<g id="node2" class="node">
<title>QueryStopWordsFacadeTransactional</title>
<path fill="none" stroke="#000000" d="M222,-108C222,-108 12,-108 12,-108 6,-108 0,-102 0,-96 0,-96 0,-84 0,-84 0,-78 6,-72 12,-72 12,-72 222,-72 222,-72 228,-72 234,-78 234,-84 234,-84 234,-96 234,-96 234,-102 228,-108 222,-108"/>
<text text-anchor="middle" x="117" y="-86.3" font-family="Times,serif" font-size="14.00" fill="#000000">QueryStopWordsFacadeTransactional</text>
</g>
<!-- StopWordsWebService4&#45;&gt;QueryStopWordsFacadeTransactional -->
<g id="edge1" class="edge">
<title>StopWordsWebService4&#45;&gt;QueryStopWordsFacadeTransactional</title>
<path fill="none" stroke="#000000" d="M117,-143.8314C117,-143.8314 117,-118.4133 117,-118.4133"/>
<polygon fill="#000000" stroke="#000000" points="120.5001,-118.4132 117,-108.4133 113.5001,-118.4133 120.5001,-118.4132"/>
</g>
<!-- StopWordsServiceImpl -->
<g id="node6" class="node">
<title>StopWordsServiceImpl</title>
<path fill="none" stroke="#000000" d="M425.5,-36C425.5,-36 298.5,-36 298.5,-36 292.5,-36 286.5,-30 286.5,-24 286.5,-24 286.5,-12 286.5,-12 286.5,-6 292.5,0 298.5,0 298.5,0 425.5,0 425.5,0 431.5,0 437.5,-6 437.5,-12 437.5,-12 437.5,-24 437.5,-24 437.5,-30 431.5,-36 425.5,-36"/>
<text text-anchor="middle" x="362" y="-14.3" font-family="Times,serif" font-size="14.00" fill="#000000">StopWordsServiceImpl</text>
</g>
<!-- QueryStopWordsFacadeTransactional&#45;&gt;StopWordsServiceImpl -->
<g id="edge4" class="edge">
<title>QueryStopWordsFacadeTransactional&#45;&gt;StopWordsServiceImpl</title>
<path fill="none" stroke="#000000" d="M117,-71.8314C117,-50.502 117,-18 117,-18 117,-18 276.4928,-18 276.4928,-18"/>
<polygon fill="#000000" stroke="#000000" points="276.4928,-21.5001 286.4928,-18 276.4928,-14.5001 276.4928,-21.5001"/>
</g>
<!-- StopWordsWebService -->
<g id="node3" class="node">
<title>StopWordsWebService</title>
<path fill="none" stroke="#000000" d="M525.5,-180C525.5,-180 398.5,-180 398.5,-180 392.5,-180 386.5,-174 386.5,-168 386.5,-168 386.5,-156 386.5,-156 386.5,-150 392.5,-144 398.5,-144 398.5,-144 525.5,-144 525.5,-144 531.5,-144 537.5,-150 537.5,-156 537.5,-156 537.5,-168 537.5,-168 537.5,-174 531.5,-180 525.5,-180"/>
<text text-anchor="middle" x="462" y="-158.3" font-family="Times,serif" font-size="14.00" fill="#000000">StopWordsWebService</text>
</g>
<!-- QueryStopWordsFacadeChanneled -->
<g id="node4" class="node">
<title>QueryStopWordsFacadeChanneled</title>
<path fill="none" stroke="#000000" d="M459.5,-108C459.5,-108 264.5,-108 264.5,-108 258.5,-108 252.5,-102 252.5,-96 252.5,-96 252.5,-84 252.5,-84 252.5,-78 258.5,-72 264.5,-72 264.5,-72 459.5,-72 459.5,-72 465.5,-72 471.5,-78 471.5,-84 471.5,-84 471.5,-96 471.5,-96 471.5,-102 465.5,-108 459.5,-108"/>
<text text-anchor="middle" x="362" y="-86.3" font-family="Times,serif" font-size="14.00" fill="#000000">QueryStopWordsFacadeChanneled</text>
</g>
<!-- StopWordsWebService&#45;&gt;QueryStopWordsFacadeChanneled -->
<g id="edge2" class="edge">
<title>StopWordsWebService&#45;&gt;QueryStopWordsFacadeChanneled</title>
<path fill="none" stroke="#000000" d="M429,-143.8314C429,-143.8314 429,-118.4133 429,-118.4133"/>
<polygon fill="#000000" stroke="#000000" points="432.5001,-118.4132 429,-108.4133 425.5001,-118.4133 432.5001,-118.4132"/>
</g>
<!-- EditStopWordsFacade -->
<g id="node5" class="node">
<title>EditStopWordsFacade</title>
<path fill="none" stroke="#000000" d="M624,-108C624,-108 502,-108 502,-108 496,-108 490,-102 490,-96 490,-96 490,-84 490,-84 490,-78 496,-72 502,-72 502,-72 624,-72 624,-72 630,-72 636,-78 636,-84 636,-84 636,-96 636,-96 636,-102 630,-108 624,-108"/>
<text text-anchor="middle" x="563" y="-86.3" font-family="Times,serif" font-size="14.00" fill="#000000">EditStopWordsFacade</text>
</g>
<!-- StopWordsWebService&#45;&gt;EditStopWordsFacade -->
<g id="edge3" class="edge">
<title>StopWordsWebService&#45;&gt;EditStopWordsFacade</title>
<path fill="none" stroke="#000000" d="M513.75,-143.8314C513.75,-143.8314 513.75,-118.4133 513.75,-118.4133"/>
<polygon fill="#000000" stroke="#000000" points="517.2501,-118.4132 513.75,-108.4133 510.2501,-118.4133 517.2501,-118.4132"/>
</g>
<!-- QueryStopWordsFacadeChanneled&#45;&gt;StopWordsServiceImpl -->
<g id="edge5" class="edge">
<title>QueryStopWordsFacadeChanneled&#45;&gt;StopWordsServiceImpl</title>
<path fill="none" stroke="#000000" d="M362,-71.8314C362,-71.8314 362,-46.4133 362,-46.4133"/>
<polygon fill="#000000" stroke="#000000" points="365.5001,-46.4132 362,-36.4133 358.5001,-46.4133 365.5001,-46.4132"/>
</g>
<!-- EditStopWordsFacade&#45;&gt;StopWordsServiceImpl -->
<g id="edge6" class="edge">
<title>EditStopWordsFacade&#45;&gt;StopWordsServiceImpl</title>
<path fill="none" stroke="#000000" d="M563,-71.8314C563,-50.502 563,-18 563,-18 563,-18 447.7031,-18 447.7031,-18"/>
<polygon fill="#000000" stroke="#000000" points="447.7031,-14.5001 437.7031,-18 447.703,-21.5001 447.7031,-14.5001"/>
</g>
</g>
</svg>
